ply
format ascii 1.0
element vertex 64
property float x
property float y
property float z
end_header
0.079095 -0.888437 0.192247
-0.545138 -0.192917 -0.697228
0.789549 0.364379 -0.430449
-0.346965 0.725516 -0.484067
0.940863 -0.193478 0.098237
0.148485 -0.595533 -0.684176
0.390433 -0.767857 0.362251
-0.110620 0.246252 -0.895665
-0.040918 0.394005 -0.887297
0.171329 0.375620 -0.876023
0.140492 -0.507447 -0.754867
0.799664 0.549091 0.133710
0.530870 0.654190 0.465682
0.961014 0.268478 -0.094178
-0.016241 0.257747 -0.925145
0.479927 0.818324 0.128402
0.682143 -0.427274 0.525975
0.511918 -0.207499 -0.772216
-0.486593 0.485524 -0.636345
-0.562830 0.030578 -0.711995
-0.170648 0.107344 -0.902133
0.439025 -0.732355 -0.324470
-0.214357 0.569428 -0.759221
-0.262756 -0.835735 -0.186981
0.870197 0.266989 0.323735
-0.363557 -0.420007 -0.703313
0.212674 -0.811910 -0.349751
0.792222 -0.448871 0.241568
0.193041 0.924981 0.115723
0.229368 -0.823241 0.324219
0.619548 0.723632 -0.258497
-0.207560 -0.771045 -0.384257
0.114932 -0.776948 -0.506366
0.495142 -0.326558 0.731391
0.641211 -0.709044 0.041186
0.484860 -0.515056 -0.622547
0.371064 0.570992 -0.698420
0.933590 -0.102582 -0.292240
-0.092023 0.676584 -0.668629
0.770445 0.149080 -0.561390
0.102197 -0.891493 -0.106136
0.743939 -0.087830 0.599026
0.659438 0.414251 0.538457
0.521201 0.708955 -0.437500
0.373340 0.913826 0.107804
0.949790 -0.167683 -0.170560
0.825643 0.470433 0.260523
0.456737 -0.809828 -0.031405
0.503724 -0.587710 0.503056
-0.120243 -0.508584 -0.735016
0.947344 0.228099 0.197404
-0.500877 0.143202 -0.745710
-0.259297 -0.501954 -0.712987
0.816313 0.566593 -0.077674
-0.182569 0.714557 -0.608469
0.674374 0.715501 0.090514
0.404078 0.729034 -0.506824
-0.003664 0.682461 -0.691738
0.442332 -0.678419 -0.453951
0.910694 0.365974 -0.008464
0.796438 -0.133568 0.483530
0.119129 -0.883818 0.163099
0.194675 0.580328 -0.738494
0.848469 0.066383 0.457384
