ply
format ascii 1.0
element vertex 128
property float x
property float y
property float z
end_header
0.159396 -0.238728 0.140566
-0.101546 0.172066 0.260001
-0.007196 0.114883 -0.255869
0.168180 0.478722 0.433006
0.290401 -0.296148 0.168498
-0.309818 0.308270 0.263064
-0.027120 0.208253 0.192963
0.296579 0.181878 -0.365503
-0.393484 -0.282869 0.425173
0.145761 0.198566 -0.164431
-0.529205 -0.434987 -0.106627
0.023856 0.301739 -0.269211
-0.040091 -0.204200 -0.153608
-0.457365 -0.560267 0.024427
-0.225976 0.336016 0.073624
-0.249422 0.198353 0.128135
0.070749 -0.362500 -0.277579
-0.372499 -0.092491 0.239649
0.134006 -0.383831 -0.114494
0.306001 -0.084425 -0.197071
-0.367559 -0.401753 -0.020898
-0.107183 -0.282927 -0.111115
-0.178508 -0.294878 0.106847
0.138004 -0.439456 -0.435461
0.239589 0.430508 0.071428
0.029626 -0.083244 0.298382
-0.239966 -0.296572 -0.072093
0.213778 0.320441 -0.243217
0.354721 0.276832 -0.199354
0.023368 0.433544 -0.112847
-0.266521 -0.365470 0.089297
-0.023141 0.032341 0.365334
-0.160458 0.338649 -0.300793
-0.145093 -0.272363 -0.333364
-0.046262 0.281598 -0.276427
0.376524 -0.131538 -0.341501
-0.362585 -0.403743 0.395612
-0.193631 -0.360962 0.219822
0.255578 0.140998 0.239064
0.289759 -0.583875 0.143888
0.216974 -0.335793 -0.321451
-0.003042 0.144936 0.393484
-0.047387 -0.065854 0.349055
-0.232282 0.147122 -0.008102
-0.296436 0.297603 0.021555
0.130441 -0.096308 -0.355389
0.390163 0.112187 -0.003312
0.145086 -0.084074 0.346992
0.123153 -0.129428 0.172292
-0.411659 0.338044 -0.109505
-0.203823 -0.030633 -0.247517
-0.128493 0.209821 -0.387874
0.262866 0.290389 0.132722
0.142748 -0.216460 0.179389
0.108894 -0.226556 0.016049
0.099288 0.200515 0.298243
-0.305299 -0.004879 0.372595
0.089669 -0.000697 0.402730
-0.298170 0.324056 0.064392
-0.317331 -0.324669 0.009224
0.233061 0.170784 0.190395
0.096613 0.164843 0.171532
-0.191302 0.290325 -0.207215
0.310344 0.116474 0.285062
-0.321688 -0.127779 -0.101772
0.314478 0.047574 -0.080775
0.332878 0.207569 -0.295129
-0.207537 0.283736 -0.439677
0.143274 -0.081544 0.117226
0.000638 0.104784 0.464123
-0.336921 -0.398035 -0.189546
-0.352217 -0.129953 0.166415
-0.158563 0.220494 -0.098659
0.175267 0.178272 0.136339
-0.287207 0.371016 -0.028032
0.087400 -0.187027 0.039061
0.269083 -0.345055 -0.444433
0.013780 0.119262 0.451921
-0.581684 -0.064759 -0.210913
-0.008790 0.092925 0.196434
-0.130382 0.245526 -0.255296
-0.193102 -0.046854 0.149021
0.271764 -0.422370 -0.239825
0.122948 -0.058978 -0.323658
0.197632 0.167759 -0.451828
-0.041221 0.201126 0.237941
0.187671 -0.281727 0.061811
0.158054 0.147330 0.267387
0.021625 -0.192427 -0.280132
0.067980 0.017122 0.227766
-0.195697 -0.198559 0.229185
-0.386810 -0.086407 0.189321
0.262019 0.094061 0.371526
-0.299578 0.002702 -0.362488
-0.390908 0.162604 0.204419
0.013278 -0.333806 0.267828
-0.156549 0.238547 0.298281
-0.291216 -0.279819 0.264865
-0.296856 0.262235 0.306395
-0.150141 0.155909 0.169782
0.283430 -0.028822 0.016356
0.019105 0.266137 -0.185997
0.199117 0.440468 0.290595
-0.332899 0.329438 -0.187919
-0.064321 -0.032828 0.184616
0.148845 -0.154984 -0.085038
-0.471322 0.348689 -0.327825
0.397761 0.144714 0.229871
-0.167197 0.302218 0.339740
0.348648 0.086569 -0.232237
-0.183153 -0.178090 -0.202213
0.434066 0.242038 0.159470
0.185100 0.264134 0.133509
0.374871 -0.291736 -0.173179
0.102518 -0.118111 0.325600
0.348993 0.153435 -0.353040
-0.249086 -0.352241 -0.232855
-0.189027 -0.024382 0.162597
0.279494 -0.012314 0.174034
-0.309133 -0.266831 -0.089014
0.389262 0.650198 0.268448
-0.061442 0.092957 0.355047
0.078632 -0.306656 0.243481
0.107763 0.471978 -0.194484
-0.084156 0.406340 -0.021295
-0.045078 0.046146 0.326427
0.467059 -0.206822 0.381164
0.290231 -0.420712 -0.130166
