ply
format ascii 1.0
element vertex 128
property float x
property float y
property float z
end_header
0.147975 -0.502832 -0.762173
-0.811390 0.380939 0.170373
0.479731 -0.515251 -0.618321
-0.110299 -0.436082 0.783969
0.798252 0.545254 0.139411
0.927154 -0.108082 -0.291579
0.119191 -0.882713 0.163616
0.108635 -0.239088 -0.908669
0.306697 0.300602 0.867314
-0.829140 0.323064 -0.049889
-0.495617 0.603464 0.521447
0.511422 -0.212153 -0.781204
-0.528373 -0.711834 -0.039020
0.460501 -0.805356 -0.029773
-0.378800 0.187704 0.810405
0.191056 0.924679 0.122236
-0.832130 -0.278285 -0.062712
0.790555 0.358814 -0.429224
0.443629 -0.736630 -0.327668
-0.587421 -0.664526 0.025860
0.104716 -0.888353 -0.107694
-0.109566 0.252332 -0.887848
0.745949 -0.089050 0.597660
0.492586 -0.328514 0.740324
0.149593 -0.598771 -0.684108
0.373194 0.913671 0.108392
-0.516771 0.138946 -0.742174
0.879115 0.266570 0.326516
0.527011 0.719538 -0.428191
-0.316119 -0.787328 0.282147
0.020938 -0.788853 0.420458
0.796123 -0.124108 0.493323
-0.216570 0.563180 -0.762398
-0.316209 0.415452 0.753404
-0.713540 0.185988 -0.506195
0.171810 0.369980 -0.864619
0.684059 0.712168 0.095424
-0.855345 0.168855 -0.252440
0.150607 0.737559 0.597076
-0.311108 -0.597884 0.559749
-0.765422 0.369527 -0.343684
0.242185 -0.298547 0.845172
-0.207781 -0.770030 -0.378845
-0.313371 0.877802 0.033486
0.444366 -0.675494 -0.453718
0.184783 -0.409482 0.790675
-0.489174 0.487382 -0.631879
-0.044346 0.395760 -0.882186
-0.335554 -0.816364 -0.126726
0.155860 0.159344 0.918081
0.227464 0.590413 0.716101
0.854024 0.072243 0.462851
0.175840 -0.529796 0.718550
-0.249807 -0.455650 0.707365
-0.226400 -0.878369 0.003778
0.205878 -0.813186 -0.356504
-0.711172 0.243332 0.511353
-0.758654 -0.324788 0.293468
0.615077 0.723575 -0.259741
0.448407 0.389987 -0.760416
-0.337316 -0.688569 0.455452
-0.773424 0.185913 -0.455041
-0.388922 -0.139716 0.801428
0.115688 -0.773217 -0.500114
-0.357157 -0.428417 -0.711958
-0.612386 -0.186160 0.606241
-0.595915 -0.201979 -0.661051
-0.182639 0.712874 -0.610594
0.947810 0.227443 0.195577
-0.524910 0.274199 0.700749
0.201468 0.760562 -0.577512
-0.677675 0.495333 -0.379182
0.496586 -0.596897 0.504735
0.073857 0.358823 0.882891
0.909300 0.371014 -0.012086
-0.085802 0.678179 -0.669715
-0.017031 0.253858 -0.929180
-0.367889 -0.611874 -0.513067
-0.533537 -0.188099 -0.692652
0.229624 -0.822842 0.315232
-0.264142 -0.500144 -0.710538
-0.722145 0.555011 -0.000506
0.386924 -0.762681 0.362311
0.488026 0.829561 0.123393
0.771456 0.151969 -0.562654
0.665135 0.416657 0.531269
-0.105440 -0.775474 0.397166
-0.757547 0.232069 0.422591
0.376482 0.569268 -0.700316
-0.562887 0.032074 -0.706920
0.318151 0.437491 0.805016
-0.266456 -0.838920 -0.188685
-0.765365 0.330656 -0.385988
-0.626390 0.669552 -0.028597
-0.221059 0.867527 0.286058
-0.221848 -0.244032 0.827617
-0.494829 0.673019 -0.398236
0.443210 0.283562 0.768871
0.252404 0.231821 -0.899756
0.945742 -0.188925 0.095444
0.792162 -0.449885 0.247035
-0.129769 -0.508762 -0.743785
-0.000196 0.678306 -0.685027
0.943719 -0.154319 -0.172540
0.097802 -0.300015 0.865216
-0.143587 -0.871967 0.178330
-0.391611 0.177623 0.793894
-0.052761 0.769152 0.545887
0.811770 0.566437 -0.079067
0.676204 -0.422170 0.535275
-0.180892 0.098419 -0.907813
0.194815 0.579200 -0.743232
-0.206798 0.699844 0.624970
-0.626623 -0.334143 0.547522
0.411289 0.729326 -0.507244
0.641825 -0.714022 0.035890
0.090354 -0.884304 0.196159
-0.073104 -0.605514 0.682748
-0.792758 0.423394 0.177256
-0.601898 -0.622307 -0.166006
-0.731790 -0.439031 -0.239886
-0.508407 -0.712373 -0.161561
0.817836 0.476072 0.262422
-0.495186 0.355083 0.671725
0.958270 0.269416 -0.095569
-0.758779 0.057575 -0.476749
-0.341811 0.725801 -0.489313
0.536468 0.651951 0.465390
