ply
format ascii 1.0
element vertex 256
property float x
property float y
property float z
end_header
-0.414105 -0.836504 0.243645
-0.458382 -0.847744 0.070865
-0.089930 0.912725 -0.190135
-0.829993 -0.038001 -0.547574
-0.182077 0.913800 -0.129455
0.521033 -0.401622 0.657192
0.150871 -0.912522 0.252731
-0.705841 0.659211 0.043091
0.454312 0.777120 0.213800
-0.508677 -0.065514 0.809742
0.230746 -0.800430 0.482140
0.277842 -0.893700 0.231547
-0.046531 -0.916537 0.321968
-0.312970 0.152496 0.899201
-0.385798 0.847317 0.175398
-0.381482 0.845349 -0.181230
-0.359128 0.570592 0.693411
-0.157008 -0.849139 0.405573
-0.938499 -0.038478 0.079674
-0.397926 0.025643 0.886071
0.217058 -0.647430 0.683804
-0.733501 0.583365 -0.150775
-0.634192 0.623739 -0.345650
-0.238341 -0.923334 -0.018761
0.544838 0.783548 0.065581
0.291801 -0.608843 0.699210
-0.687232 0.448484 -0.477824
-0.962881 0.108194 -0.040750
-0.111231 0.170618 0.925468
-0.068119 -0.947587 0.162762
-0.459121 -0.083586 0.841636
0.145781 0.841576 0.357726
-0.937661 -0.237437 -0.026341
0.487726 0.800944 0.033319
-0.572731 -0.111010 0.778490
0.634914 0.656285 0.210268
0.249892 0.868561 0.233173
-0.569557 -0.805065 -0.061419
-0.798305 -0.378160 -0.429061
0.342728 0.218621 0.850764
-0.228452 -0.489836 0.792194
0.727685 0.538977 0.204204
0.133196 -0.391149 0.861114
0.078742 -0.236544 0.908278
0.311177 -0.402379 0.818305
0.600018 0.271632 0.663032
-0.602876 -0.760844 0.071054
0.100491 0.938277 -0.054304
0.819469 0.297968 0.359300
-0.566153 0.572451 -0.517696
-0.469358 0.804102 0.012518
-0.865507 -0.455866 -0.010087
-0.516920 -0.842160 -0.024235
0.064167 -0.886423 0.373816
0.697573 -0.362351 0.529553
0.169151 0.945260 -0.038470
-0.714153 -0.587327 0.238995
0.015287 0.941336 -0.153063
-0.608861 -0.066232 0.733390
-0.711161 0.381066 0.538287
-0.056308 0.193806 0.924464
-0.219797 0.898877 -0.231741
-0.334819 -0.897757 0.148810
0.558907 -0.142491 0.741960
-0.879719 0.430700 0.020213
0.336663 -0.459582 0.751162
-0.842514 0.202768 0.431902
0.725223 0.454796 0.413227
0.573734 0.713991 0.122766
-0.924572 0.189938 0.187594
-0.968030 -0.084719 -0.018334
-0.097519 0.868105 0.292905
-0.600576 -0.107572 0.736880
-0.805152 0.510365 -0.175485
-0.813883 -0.542360 0.105800
-0.277601 0.890200 -0.123728
-0.155396 0.925922 -0.157965
-0.098029 0.852675 0.389451
-0.489033 -0.821281 0.138195
-0.079053 -0.628063 0.731605
-0.194296 0.025688 0.941054
0.066735 0.939487 -0.011207
-0.017987 -0.182170 0.932075
0.509568 0.629944 0.443290
0.661133 -0.401890 0.535378
-0.779599 0.230438 0.534017
-0.889279 0.334870 -0.093122
-0.177849 0.910631 -0.224162
-0.823351 0.405041 0.296219
-0.429304 0.098192 0.858819
0.096928 0.919339 -0.208920
-0.656247 -0.117740 0.699227
-0.326696 0.693422 0.558969
-0.656118 -0.686936 0.237554
-0.468799 -0.001141 0.841210
-0.951110 0.186833 0.119450
-0.609115 0.728602 0.006507
-0.786473 0.268503 0.473116
-0.910073 0.037123 -0.384236
0.824724 0.361026 0.246058
-0.809304 -0.061741 -0.561232
-0.843488 0.092233 -0.450880
-0.539018 0.250075 0.753907
0.432854 0.724061 0.425655
-0.278725 -0.417583 0.834973
-0.322772 0.893135 0.071429
-0.513003 -0.712039 0.385872
-0.260647 0.750582 0.517705
0.163588 -0.358878 0.870802
-0.948014 -0.176124 0.154868
0.215035 0.472327 0.786163
0.494815 0.778609 0.103712
-0.931686 0.252799 0.118224
0.529281 -0.664018 0.406479
-0.886361 0.351755 -0.198397
0.685647 0.454143 0.453999
-0.261964 0.829870 0.355666
-0.738664 0.570138 -0.199141
-0.859843 -0.011419 0.453669
0.347698 0.788258 0.316777
0.475994 0.803735 0.149454
0.481171 0.666288 0.429885
-0.682503 0.410434 0.535105
-0.812184 0.396864 0.317580
0.810261 0.334891 0.247598
-0.054809 -0.241045 0.926681
-0.120078 0.863654 -0.345861
0.658896 -0.499729 0.473919
0.669226 0.123438 0.639797
-0.872635 0.385345 0.047047
-0.511056 0.824270 0.025561
-0.859138 0.352665 -0.236057
-0.847070 -0.392153 -0.279658
0.310084 0.869151 0.118538
0.262621 0.076823 0.904081
-0.445134 0.829521 -0.219011
-0.067094 0.144073 0.946404
-0.085993 0.918674 0.274251
0.595159 0.450289 0.530852
-0.904685 0.325750 0.148198
-0.858607 -0.221526 -0.385077
-0.846328 0.371868 -0.316629
-0.534734 0.810661 0.101471
-0.717155 0.457581 0.433747
-0.358305 -0.886291 0.172398
0.343787 0.472673 0.743141
-0.302062 0.795945 0.436108
-0.800214 0.368545 0.389559
-0.960203 -0.077637 0.180824
0.016168 0.012435 0.961680
-0.918777 -0.309193 -0.035263
-0.105024 0.273236 0.897213
-0.852506 -0.127414 -0.457271
0.544989 0.307811 0.690151
-0.454131 0.845019 -0.042186
-0.159634 -0.404160 0.866003
-0.853585 -0.359519 -0.222854
-0.571786 0.644456 -0.411682
0.089032 0.940354 -0.145564
-0.669554 0.462557 -0.487604
-0.063462 -0.615569 0.733334
0.427719 -0.754072 0.404388
0.028746 0.936114 -0.199887
-0.684216 0.381455 0.530678
-0.110777 0.575042 0.730684
-0.347483 -0.855274 0.296011
-0.241535 0.238126 0.897491
-0.372520 -0.911443 0.096182
0.339946 0.529755 0.698342
-0.279131 0.004795 0.904998
0.549130 -0.324089 0.716116
-0.099999 0.066033 0.963562
-0.124236 0.942575 0.190955
-0.817676 -0.538125 0.048061
-0.462664 0.806893 -0.150370
-0.934905 -0.267200 -0.138853
-0.909423 0.338356 0.008550
0.120846 -0.611416 0.722937
0.361074 0.840060 0.208440
0.018825 0.450594 0.836186
0.794705 -0.306171 0.390854
-0.192053 0.916229 0.020641
-0.218028 -0.816260 0.457167
0.621553 0.152741 0.682346
-0.007366 -0.822582 0.453013
-0.739359 0.371611 0.507040
-0.555261 0.041215 0.785258
0.736328 0.425249 0.373043
-0.733147 0.513358 0.355712
0.025785 0.736873 0.602027
-0.567779 0.732786 0.206566
-0.723044 0.622241 0.181723
0.519051 0.338363 0.710084
-0.571489 -0.527868 0.582600
0.539187 -0.227481 0.743093
-0.945363 0.177317 -0.071567
-0.340422 -0.368934 0.819308
-0.947679 0.017761 0.226455
0.329314 -0.837708 0.346172
-0.913368 -0.263259 0.193832
-0.141398 -0.718014 0.629754
0.086870 -0.860746 0.463599
-0.546318 -0.404707 0.694563
0.235680 -0.132325 0.917303
-0.830805 0.521321 0.094708
-0.919784 -0.388728 0.003960
-0.123213 0.337801 0.870491
0.451029 -0.078406 0.819263
-0.225378 0.321380 0.891228
0.593190 -0.658253 0.329788
0.071717 -0.540551 0.780315
0.401899 0.492305 0.686102
-0.863164 0.150038 -0.401514
0.471603 0.628509 0.492936
-0.796288 0.030875 0.532063
-0.723306 -0.118120 0.660047
-0.687417 0.312938 0.585294
-0.689673 -0.646779 0.212765
-0.911572 0.227491 -0.280488
-0.063489 0.849546 0.406218
-0.332963 -0.894699 0.159000
0.205432 0.915879 -0.150226
0.020765 0.395428 0.844204
-0.423054 0.553851 0.665914
-0.217298 -0.903686 0.273854
0.200860 -0.268334 0.888489
-0.024248 -0.330643 0.890574
0.123143 -0.616020 0.706907
-0.381108 -0.873666 0.188237
-0.730995 -0.445867 0.458766
0.046511 -0.951388 0.131678
-0.434439 -0.685172 0.530931
-0.856264 -0.471371 -0.051048
-0.938526 0.148391 0.248531
-0.603361 0.688689 -0.224646
0.026939 0.514440 0.787787
-0.695834 0.640280 -0.099959
-0.852185 -0.105781 0.452673
0.089243 0.921715 -0.141240
0.329402 0.244093 0.872559
-0.917188 -0.070577 0.277380
0.745131 0.113859 0.582708
0.079706 -0.445334 0.838741
-0.321286 -0.877610 0.154815
-0.216826 0.696797 0.585828
-0.551267 0.582335 0.512615
-0.167662 0.803751 0.455413
-0.003829 0.084161 0.951418
-0.865253 0.276177 0.339664
0.248019 0.156386 0.898071
-0.358103 -0.666662 0.599060
-0.557824 0.550082 0.532557
-0.325469 0.276924 0.844858
-0.825958 -0.249092 0.465607
-0.668572 -0.714889 -0.083802
0.569640 0.488557 0.539206
