ply
format ascii 1.0
element vertex 512
property float x
property float y
property float z
end_header
-0.283302 -0.597366 -0.702043
0.818318 0.291895 0.364574
0.130422 0.658415 -0.675316
0.177076 0.370196 0.840701
0.219567 0.480006 0.786650
0.079813 -0.229986 0.917959
0.543608 -0.311030 0.707928
-0.174046 0.902456 -0.230037
0.390172 -0.854668 -0.073031
0.676076 -0.581358 -0.349508
-0.978339 -0.081985 -0.016687
0.014345 0.788198 -0.510310
0.165941 -0.361611 0.869967
0.201699 0.923931 -0.150516
-0.050613 -0.918460 -0.316582
-0.344389 -0.358350 0.827557
0.794167 -0.401002 -0.296023
0.088134 0.916044 -0.143130
0.271385 -0.895551 0.227694
-0.850003 -0.111021 0.444365
0.093918 0.938913 -0.147758
0.400147 0.680712 -0.548712
-0.944647 0.014797 0.230339
-0.643540 -0.368616 -0.624409
0.360250 0.835331 0.205824
0.912277 0.063839 0.277359
-0.932812 0.147380 0.251949
-0.131551 -0.922347 -0.282513
0.816217 -0.469062 -0.211708
-0.612616 -0.620716 -0.446065
0.667088 -0.397542 0.537608
0.531993 -0.663458 0.404879
0.150755 0.843448 0.357016
0.204728 -0.270551 0.890597
-0.079801 -0.634549 0.732386
-0.179777 0.919334 -0.123101
0.222776 -0.802344 0.483331
0.590940 -0.706962 0.255342
-0.314259 0.891492 0.081428
-0.674935 -0.130746 -0.706041
0.857909 0.405435 -0.009556
-0.693082 -0.412984 -0.543906
0.032278 0.741347 0.595660
0.088078 -0.856375 0.463872
0.331218 0.625879 -0.615900
-0.212687 0.486813 -0.783604
0.575093 0.044515 -0.759894
0.755896 0.151550 0.531545
-0.471469 -0.004173 0.833645
-0.864587 0.151358 -0.398294
0.401487 0.402188 -0.737767
-0.064578 0.851894 0.402741
0.931182 0.025923 0.015833
-0.727865 0.623879 0.183061
-0.863347 -0.459244 -0.004510
-0.685613 0.318874 0.584243
0.459850 -0.824885 0.150545
-0.570210 -0.531621 0.574911
-0.103634 0.872047 0.299342
0.327492 -0.838029 0.354693
-0.857568 -0.008590 0.455054
0.035259 -0.949529 0.129441
-0.853410 -0.399687 -0.277025
-0.885112 0.349052 -0.207350
-0.221877 0.154783 -0.927878
0.322680 0.037252 -0.892572
-0.943304 0.177876 -0.064980
-0.567390 -0.558203 0.567780
0.795975 -0.300326 0.387940
-0.862457 0.349579 -0.242743
-0.959412 0.097728 -0.038128
-0.728921 -0.111379 0.656181
-0.672616 0.411520 0.539050
-0.825778 -0.453535 0.193958
0.598065 0.276964 0.657253
-0.280152 -0.001302 0.906337
-0.712579 -0.587097 0.247982
-0.023912 -0.331124 0.885005
-0.485432 0.191593 -0.806605
-0.268002 0.746157 0.518807
0.543761 0.017104 -0.786403
0.018932 -0.794030 -0.531714
0.787762 0.415734 -0.307815
-0.628798 0.009720 -0.755233
-0.301322 0.796751 0.424881
0.478138 -0.758751 -0.300669
0.679555 -0.226941 -0.625074
-0.352261 0.692123 -0.555002
0.237056 -0.185645 -0.900780
-0.219906 0.320446 0.887041
0.135622 -0.400412 0.856558
0.241539 -0.807666 -0.468086
-0.517578 -0.725525 0.387100
0.046901 0.375820 -0.862304
0.565044 0.693918 -0.304447
-0.812128 0.404226 0.321734
0.431062 0.634870 -0.529971
0.612845 -0.658152 -0.313187
0.262906 0.560749 -0.714279
0.660862 0.107527 -0.682455
-0.155845 -0.046220 -0.927914
-0.853375 0.373693 -0.315109
0.578843 -0.746837 -0.153125
0.483922 0.775191 -0.168762
-0.577514 0.650022 -0.410222
-0.598469 -0.756081 0.064617
0.256582 -0.142726 -0.905618
-0.086422 0.915210 -0.192288
-0.377766 -0.884442 0.214726
0.467128 0.629734 0.484994
-0.016493 -0.176910 0.934786
-0.271275 0.899231 -0.129855
0.013283 0.449951 0.837057
0.026548 0.512031 0.790633
-0.464251 0.471897 -0.682984
-0.470000 0.805785 0.013710
-0.602255 -0.525519 -0.547214
-0.750973 -0.227944 0.543121
-0.010367 -0.830640 0.445626
-0.101109 0.271709 0.895495
0.440063 -0.126320 -0.852253
-0.931835 -0.265141 -0.143482
-0.405398 -0.851199 -0.257660
-0.342326 -0.858153 0.295590
0.542181 0.773181 0.058883
0.576801 0.711352 0.127593
-0.672424 0.148610 -0.675848
-0.458206 -0.079796 0.843665
-0.116073 0.871504 -0.340832
0.385946 0.831009 -0.199652
-0.828316 -0.037677 -0.546525
-0.486739 -0.751023 -0.387656
0.099852 0.908421 -0.210732
0.137742 0.813898 -0.464364
0.873768 -0.270108 -0.092647
-0.134295 -0.717445 0.625354
0.675626 0.127643 0.635883
0.908849 -0.126830 0.226309
0.931323 0.050548 0.094417
-0.116981 0.940634 0.184122
0.809341 -0.474549 0.015117
0.419832 0.229628 -0.805690
0.354567 -0.460903 -0.763306
0.550398 0.744104 -0.049917
0.217425 0.437446 -0.821011
0.120974 -0.633350 -0.715162
0.723788 -0.563612 0.237421
-0.427405 0.100456 0.853829
0.310658 0.064469 -0.889374
-0.383152 0.846669 0.167698
0.922453 0.059953 -0.079184
-0.247109 0.290974 -0.876687
-0.450254 -0.690864 0.529330
-0.119425 0.853810 0.379704
-0.284835 -0.418487 0.830937
0.804531 -0.418249 0.311731
-0.858387 0.184393 0.413934
0.228140 0.854793 -0.285216
0.814415 -0.461085 0.139687
0.869554 -0.320381 0.234813
0.390502 0.445535 -0.744320
0.589631 -0.461327 -0.566308
-0.228320 0.777418 -0.518748
0.627251 0.658968 0.207011
0.685906 0.630070 0.074700
0.042489 -0.900612 -0.347504
0.638077 0.390558 0.564815
0.060630 -0.883221 0.369234
0.028683 0.650627 -0.690232
-0.709015 0.371500 0.542125
0.527649 0.681039 -0.342364
-0.578674 -0.812647 -0.068860
-0.745453 0.178929 -0.633088
-0.747383 0.566463 -0.198764
0.266898 -0.767639 -0.515699
-0.843559 0.205884 0.429851
-0.330177 -0.881633 0.165237
0.118379 -0.616504 0.721961
-0.537040 -0.490522 -0.662642
0.903706 -0.246750 0.157576
-0.924279 -0.310174 -0.039478
0.176853 0.943848 -0.049125
-0.822737 -0.250163 0.470999
0.018887 0.936824 -0.158588
0.733520 0.420333 0.372251
-0.002363 -0.877497 -0.425820
-0.071680 0.629674 -0.716765
-0.319970 0.691569 0.557190
0.933203 -0.075458 0.031131
-0.667352 0.462701 -0.491048
-0.895535 0.335952 -0.092164
0.787520 -0.474277 0.246509
0.196501 -0.806693 -0.479634
0.447657 -0.588379 -0.626921
-0.190964 0.025669 0.931559
0.156804 0.704896 -0.612003
0.816632 0.340920 -0.307279
0.819266 0.453224 -0.187529
0.409731 0.497092 0.683891
-0.118064 0.841454 -0.430940
0.120446 -0.787605 -0.527915
0.073718 0.641623 -0.698024
-0.733208 0.373167 0.496890
-0.923701 0.248899 0.112891
-0.225594 0.505641 -0.751275
0.418619 0.825125 -0.089954
-0.055918 0.194238 0.926371
0.302792 -0.407313 0.819719
0.935492 -0.041493 0.125747
-0.565858 0.568279 -0.519409
-0.922982 0.195634 0.181251
-0.509880 0.821166 0.017522
-0.245965 0.233843 0.890052
-0.117250 -0.216945 -0.930412
-0.097291 -0.877087 -0.379593
-0.383588 0.849468 -0.186158
0.480008 0.662217 0.431867
-0.218123 -0.812298 0.457305
-0.804145 0.296529 0.445900
0.800063 -0.477010 0.133807
-0.820869 0.518076 0.096323
0.829162 0.131861 -0.392432
-0.099062 -0.641826 0.690570
0.918836 -0.101629 -0.129694
-0.910671 0.185827 -0.291989
0.699589 -0.239569 0.563794
0.431667 0.718793 0.422501
0.192575 0.857449 -0.355150
-0.185596 0.228172 -0.902846
-0.182564 0.078073 -0.944410
0.520192 -0.399587 0.663388
0.661662 -0.137966 -0.677650
-0.949572 -0.077359 0.185323
-0.332688 -0.894491 0.154043
-0.559307 -0.582984 -0.532111
0.598056 -0.755222 -0.110805
0.708706 0.577140 -0.166036
-0.910971 -0.383955 0.002768
0.216873 -0.649176 0.677850
0.068476 -0.538318 0.776886
0.054085 -0.547652 -0.781702
0.922387 -0.115646 -0.156727
0.838065 0.136641 -0.381089
0.592807 0.458059 0.539451
0.495844 0.732814 -0.309414
-0.858936 -0.470606 -0.055427
-0.797871 0.362352 0.398461
0.814590 0.333391 0.251708
-0.167241 0.792331 0.470291
-0.731365 0.580464 -0.140678
-0.949793 -0.045070 0.076583
0.016876 -0.882012 -0.450408
-0.796231 0.030758 0.534573
0.288372 -0.599504 0.701867
-0.859563 -0.215360 -0.381703
-0.609725 0.723156 0.008995
0.164942 -0.560620 -0.757057
0.222993 0.545856 -0.747696
0.516027 -0.432525 -0.674630
-0.418987 -0.837209 0.241046
0.736262 -0.251967 0.553351
0.140589 0.608690 -0.709751
-0.005060 0.073810 0.948311
-0.905967 0.233694 -0.288314
0.340582 0.466615 0.743585
0.027224 0.003083 0.955639
-0.446541 0.522779 0.645780
-0.030717 -0.937462 -0.248288
0.213498 -0.212615 -0.933837
0.065192 0.938844 -0.009703
0.887383 -0.338359 -0.014603
0.096955 0.055170 -0.965082
0.549028 0.299424 0.694268
-0.200947 -0.674470 -0.676362
0.826212 0.358409 0.249955
0.799826 -0.161540 -0.447986
-0.158358 0.916611 -0.158864
0.656061 0.676182 -0.068952
0.082294 -0.953747 0.177318
-0.876325 0.427178 0.018418
0.719250 -0.552284 -0.265191
-0.395747 0.005396 -0.881396
0.603686 0.019984 -0.726376
0.457361 0.772805 0.219147
0.723933 0.531341 0.201454
0.355580 0.790759 0.319386
-0.070796 0.500932 -0.790465
0.717331 0.366656 -0.484635
0.578608 -0.567021 -0.503020
-0.358116 -0.662064 0.604751
-0.783511 0.264327 0.472849
0.659294 -0.500832 0.466958
-0.251230 -0.200073 0.902110
-0.229111 -0.484708 0.793680
-0.217420 -0.907990 0.268431
-0.916767 0.338700 0.010002
-0.217201 0.695204 0.585474
0.703986 -0.623872 0.098335
-0.565216 0.585578 0.504109
-0.686637 0.275277 -0.617087
-0.189614 0.908521 0.025039
-0.925837 -0.321699 -0.017381
-0.935486 -0.241610 -0.025103
-0.868331 0.383833 0.043770
-0.574966 0.732812 0.202517
-0.919554 -0.262480 0.193475
-0.321448 0.268418 0.849388
0.121587 -0.787829 -0.544307
0.361173 0.549517 -0.688296
-0.158489 -0.856952 0.405586
0.195781 0.780774 -0.480770
0.756423 -0.366735 -0.434801
-0.561595 0.481322 -0.615349
-0.449497 0.843634 -0.034158
0.756514 -0.565963 -0.190389
0.269193 0.082339 0.905171
0.863055 -0.146375 0.336147
0.832170 -0.432358 0.149554
-0.492695 -0.820206 0.138034
-0.791972 -0.381225 -0.427321
-0.604130 -0.107689 0.730319
0.532816 0.305366 -0.734968
0.680626 0.450101 0.444800
-0.250125 -0.616891 -0.706272
0.894098 -0.248609 -0.006995
-0.810535 -0.057775 -0.554902
0.926031 -0.008199 0.094217
0.336262 -0.679828 -0.580692
0.457246 -0.857116 -0.002294
-0.199592 0.282872 -0.889321
-0.370591 -0.743375 -0.494536
0.508770 0.636063 0.444252
0.482221 0.799986 0.037490
-0.239982 -0.925182 -0.021019
-0.923810 -0.070265 0.263618
-0.818304 -0.537628 0.047864
-0.859581 -0.130916 -0.453545
0.540402 -0.223872 0.745586
0.210532 -0.884244 -0.353629
0.185415 -0.163267 -0.927508
-0.209112 0.715359 -0.599396
0.904024 -0.112337 -0.176804
0.061905 -0.173083 -0.943942
0.751281 0.561857 0.080207
0.345845 0.219195 0.849582
0.311406 0.872428 0.120313
-0.421252 0.645555 -0.577661
0.086915 0.439573 -0.846299
0.896118 0.299250 0.074143
-0.859495 0.284974 0.343576
-0.089370 0.911900 0.270343
-0.947541 0.193624 0.127416
0.182721 -0.920055 -0.266701
-0.436755 0.832877 -0.213029
0.626608 0.157872 0.682923
0.193474 -0.371042 -0.872474
-0.908781 0.039585 -0.384756
0.023931 0.841138 -0.395988
0.229784 -0.132563 0.908463
-0.096550 -0.964592 -0.006243
-0.669365 0.332663 -0.602132
-0.412613 0.548407 0.669341
0.832276 0.383758 -0.251899
-0.218705 0.899935 -0.233209
-0.183430 -0.900920 -0.307347
0.584924 0.308390 -0.654217
-0.696970 0.636245 -0.101438
-0.812114 -0.545561 0.105493
-0.079528 -0.973324 -0.077599
-0.054691 -0.934795 -0.226940
-0.207472 0.764127 -0.531887
-0.358831 0.566910 0.695526
0.339600 0.530228 0.702672
-0.132885 -0.957539 0.118100
-0.098969 0.854631 0.397464
-0.552654 0.042534 0.787896
0.556471 -0.419953 -0.647554
0.620888 0.010210 -0.747167
0.459398 -0.638091 -0.577859
-0.068291 -0.943604 0.167696
-0.312013 -0.393615 -0.822588
-0.720846 0.464853 0.443578
-0.288581 -0.307506 -0.861589
0.262850 -0.105871 -0.915830
0.254032 0.163182 0.889449
0.808387 0.363341 -0.286107
-0.530261 0.802588 0.106155
0.740529 0.553593 -0.029728
0.774394 -0.452137 0.281187
0.083841 -0.442364 0.844915
0.493189 0.785715 0.107434
-0.640598 0.630089 -0.345187
-0.324712 0.202493 -0.886782
0.843616 -0.267298 0.276165
-0.463989 0.804042 -0.153222
-0.398456 0.028414 0.882656
-0.948850 -0.175485 0.156594
0.153708 -0.914543 0.250180
0.629373 -0.677678 0.283666
-0.455010 -0.848198 0.071577
-0.605924 0.681837 -0.218236
0.104491 0.938509 -0.060073
-0.729814 0.508987 0.354743
-0.753847 -0.382698 -0.509410
0.068365 -0.741987 -0.620745
0.559630 -0.143777 0.749594
0.596698 -0.651221 0.332093
0.125330 -0.624202 0.705028
0.739655 -0.530142 -0.259277
-0.334044 -0.903226 0.150151
0.867320 -0.343902 0.188138
-0.613455 -0.072466 0.734545
0.516643 0.334666 0.714844
-0.132705 -0.842780 -0.462664
0.291933 -0.126639 0.889210
0.888371 0.160580 -0.249079
-0.685303 -0.653437 0.215623
-0.071393 0.138860 0.944165
-0.805206 0.518987 -0.185330
0.784750 -0.444377 0.263601
-0.111671 0.174001 0.933367
-0.658891 -0.679305 0.240933
-0.818413 0.405498 0.289498
0.690705 -0.359354 0.532682
-0.550905 0.547292 0.531118
0.335496 0.239649 0.866503
-0.823443 0.436640 0.284314
-0.695392 0.459021 -0.475244
0.329466 -0.321935 -0.833737
-0.292494 0.428976 -0.807085
-0.124502 0.339780 0.869198
-0.609824 0.383789 0.604894
-0.358974 -0.883916 0.166989
-0.533344 0.252145 0.747948
-0.654066 -0.103893 0.695131
-0.236317 -0.891623 -0.291138
0.741693 0.113528 0.588605
0.482483 0.533532 -0.562740
-0.050624 -0.239294 0.925439
0.715145 -0.503236 -0.355837
0.559834 -0.649948 -0.419312
-0.219767 -0.733768 -0.616744
0.930495 -0.127082 0.098248
0.336209 -0.461679 0.756746
-0.370521 -0.915727 0.097647
-0.246090 -0.307102 -0.881560
0.239440 -0.351109 -0.870906
0.678818 -0.667817 0.033779
-0.112361 0.579932 0.728378
0.553122 -0.783761 0.147461
-0.732812 -0.445988 0.458589
0.693937 -0.009339 0.634693
0.197291 0.618003 -0.713151
0.147812 -0.947984 -0.138301
-0.075240 0.084271 -0.953964
0.503554 -0.822549 -0.155226
-0.546175 -0.409177 0.688941
0.770039 -0.067998 0.544264
0.057987 -0.905326 -0.336011
0.716972 0.461000 0.405316
0.431268 -0.749063 0.408793
-0.516711 -0.844284 -0.023217
0.084063 0.573199 -0.764343
-0.513227 -0.066130 0.800317
0.480274 0.806427 0.150776
-0.530526 0.510681 -0.613780
-0.049125 -0.917964 0.327403
-0.779574 0.230990 0.527148
-0.330216 -0.517151 -0.746574
0.760826 -0.580726 -0.136994
-0.152286 -0.407856 0.863120
0.772168 0.498687 0.169587
-0.684807 0.389238 0.530126
-0.298759 0.618079 -0.681685
-0.847338 0.092859 -0.447553
0.265691 -0.236857 0.880107
-0.307672 0.425755 -0.812111
-0.065171 -0.618943 0.733873
-0.464499 0.080279 -0.849428
0.471627 -0.802775 0.162884
0.009131 0.216189 -0.948104
-0.579027 -0.111951 0.771236
-0.665038 -0.727686 0.061635
-0.697572 0.656459 0.052476
-0.855863 -0.371349 -0.226819
-0.255620 0.828133 0.363925
0.878642 -0.079754 0.318966
-0.369509 -0.873529 0.196729
-0.670731 -0.707749 -0.079562
0.681547 -0.309875 -0.614430
-0.904498 0.320975 0.147476
0.453744 -0.081825 0.817659
0.707824 0.454709 -0.395166
0.941594 -0.101104 -0.077439
-0.105770 -0.439788 -0.850189
-0.490188 -0.282719 -0.786567
-0.493842 0.573678 -0.588193
0.253263 0.871413 0.237310
0.827788 -0.110264 -0.429316
0.016343 0.393786 0.843401
0.668518 -0.649787 -0.165591
0.850277 0.321433 0.239248
0.286070 -0.892932 0.105238
0.648405 -0.704408 -0.023167
0.025715 0.933655 -0.198518
0.916555 -0.155435 -0.095408
-0.094254 0.063703 0.956344
0.294390 0.439038 -0.781877
-0.317583 0.155532 0.891984
0.807367 -0.147923 -0.477738
0.561675 0.487730 0.537136
-0.300096 -0.754833 -0.525664
