ply
format ascii 1.0
element vertex 512
property float x
property float y
property float z
end_header
-0.260638 -0.549577 -0.645879
0.752852 0.268543 0.335408
0.119988 0.605742 -0.621291
0.162910 0.340580 0.773445
0.202002 0.441606 0.723718
0.073428 -0.211587 0.844523
0.500119 -0.286147 0.651294
-0.160122 0.830259 -0.211634
0.358958 -0.786295 -0.067188
0.621989 -0.534850 -0.321547
-0.900072 -0.075427 -0.015352
0.013197 0.725142 -0.469485
0.152666 -0.332682 0.800369
0.185563 0.850017 -0.138474
-0.046564 -0.844983 -0.291255
-0.316837 -0.329682 0.761352
0.730633 -0.368922 -0.272341
0.081083 0.842760 -0.131680
0.249674 -0.823907 0.209479
-0.782003 -0.102139 0.408816
0.086404 0.863800 -0.135937
0.368135 0.626255 -0.504815
-0.869075 0.013613 0.211912
-0.592057 -0.339126 -0.574457
0.331430 0.768505 0.189358
0.839295 0.058732 0.255170
-0.858187 0.135590 0.231793
-0.121027 -0.848559 -0.259912
0.750920 -0.431537 -0.194772
-0.563607 -0.571058 -0.410380
0.613721 -0.365738 0.494599
0.489434 -0.610381 0.372488
0.138695 0.775972 0.328455
0.188349 -0.248907 0.819349
-0.073417 -0.583785 0.673795
-0.165395 0.845787 -0.113253
0.204954 -0.738156 0.444664
0.543664 -0.650405 0.234915
-0.289118 0.820173 0.074913
-0.620940 -0.120287 -0.649557
0.789276 0.373001 -0.008791
-0.637636 -0.379945 -0.500393
0.029696 0.682039 0.548007
0.081032 -0.787865 0.426762
0.304720 0.575809 -0.566628
-0.195672 0.447868 -0.720916
0.529085 0.040954 -0.699103
0.695424 0.139426 0.489022
-0.433751 -0.003839 0.766953
-0.795420 0.139249 -0.366431
0.369368 0.370013 -0.678746
-0.059412 0.783742 0.370522
0.856687 0.023849 0.014566
-0.669636 0.573968 0.168417
-0.794279 -0.422505 -0.004149
-0.630764 0.293364 0.537504
0.423062 -0.758894 0.138501
-0.524593 -0.489091 0.528918
-0.095344 0.802284 0.275395
0.301293 -0.770987 0.326318
-0.788963 -0.007902 0.418650
0.032438 -0.873567 0.119086
-0.785138 -0.367712 -0.254863
-0.814303 0.321128 -0.190762
-0.204127 0.142400 -0.853648
0.296866 0.034272 -0.821166
-0.867839 0.163646 -0.059781
-0.521999 -0.513547 0.522358
0.732297 -0.276300 0.356904
-0.793460 0.321613 -0.223324
-0.882659 0.089910 -0.035078
-0.670607 -0.102468 0.603687
-0.618806 0.378599 0.495926
-0.759716 -0.417253 0.178441
0.550220 0.254807 0.604673
-0.257740 -0.001198 0.833830
-0.655573 -0.540129 0.228143
-0.021999 -0.304634 0.814205
-0.446598 0.176266 -0.742077
-0.246562 0.686464 0.477302
0.500260 0.015736 -0.723490
0.017417 -0.730508 -0.489177
0.724741 0.382476 -0.283190
-0.578494 0.008943 -0.694814
-0.277216 0.733011 0.390891
0.439887 -0.698051 -0.276615
0.625190 -0.208786 -0.575068
-0.324080 0.636753 -0.510602
0.218091 -0.170794 -0.828717
-0.202314 0.294810 0.816078
0.124772 -0.368379 0.788033
0.222216 -0.743052 -0.430639
-0.476172 -0.667483 0.356132
0.043149 0.345754 -0.793320
0.519841 0.638404 -0.280091
-0.747158 0.371888 0.295995
0.396577 0.584081 -0.487574
0.563818 -0.605500 -0.288132
0.241873 0.515889 -0.657137
0.607993 0.098925 -0.627858
-0.143378 -0.042523 -0.853681
-0.785105 0.343798 -0.289901
0.532536 -0.687090 -0.140875
0.445208 0.713176 -0.155261
-0.531313 0.598021 -0.377404
-0.550591 -0.695595 0.059448
0.236055 -0.131308 -0.833168
-0.079508 0.841993 -0.176905
-0.347544 -0.813686 0.197548
0.429758 0.579355 0.446194
-0.015173 -0.162757 0.860003
-0.249573 0.827292 -0.119466
0.012221 0.413955 0.770093
0.024424 0.471069 0.727382
-0.427111 0.434146 -0.628345
-0.432400 0.741323 0.012613
-0.554075 -0.483477 -0.503437
-0.690895 -0.209708 0.499671
-0.009537 -0.764189 0.409976
-0.093020 0.249972 0.823856
0.404858 -0.116214 -0.784072
-0.857288 -0.243929 -0.132004
-0.372966 -0.783103 -0.237047
-0.314940 -0.789501 0.271943
0.498806 0.711326 0.054172
0.530657 0.654444 0.117385
-0.618630 0.136721 -0.621780
-0.421549 -0.073412 0.776172
-0.106787 0.801784 -0.313565
0.355070 0.764529 -0.183680
-0.762051 -0.034663 -0.502803
-0.447800 -0.690941 -0.356644
0.091864 0.835748 -0.193873
0.126722 0.748786 -0.427215
0.803867 -0.248499 -0.085235
-0.123551 -0.660050 0.575325
0.621576 0.117431 0.585012
0.836141 -0.116683 0.208204
0.856817 0.046504 0.086864
-0.107623 0.865383 0.169392
0.744594 -0.436585 0.013907
0.386245 0.211257 -0.741235
0.326202 -0.424031 -0.702242
0.506366 0.684576 -0.045924
0.200031 0.402450 -0.755330
0.111296 -0.582682 -0.657949
0.665885 -0.518523 0.218427
-0.393212 0.092420 0.785523
0.285805 0.059311 -0.818224
-0.352500 0.778935 0.154283
0.848657 0.055157 -0.072849
-0.227340 0.267697 -0.806552
-0.414233 -0.635595 0.486983
-0.109871 0.785505 0.349327
-0.262049 -0.385008 0.764462
0.740168 -0.384789 0.286793
-0.789716 0.169642 0.380820
0.209889 0.786409 -0.262399
0.749262 -0.424198 0.128512
0.799990 -0.294751 0.216028
0.359262 0.409892 -0.684775
0.542461 -0.424421 -0.521004
-0.210054 0.715225 -0.477248
0.577071 0.606250 0.190450
0.631033 0.579664 0.068724
0.039090 -0.828563 -0.319704
0.587031 0.359314 0.519630
0.055780 -0.812563 0.339696
0.026388 0.598577 -0.635013
-0.652293 0.341780 0.498755
0.485437 0.626556 -0.314975
-0.532380 -0.747635 -0.063351
-0.685817 0.164615 -0.582441
-0.687592 0.521146 -0.182863
0.245547 -0.706228 -0.474443
-0.776074 0.189413 0.395463
-0.303763 -0.811102 0.152018
0.108909 -0.567183 0.664204
-0.494076 -0.451280 -0.609630
0.831410 -0.227010 0.144970
-0.850336 -0.285360 -0.036320
0.162705 0.868341 -0.045195
-0.756918 -0.230150 0.433319
0.017376 0.861878 -0.145901
0.674838 0.386706 0.342471
-0.002174 -0.807297 -0.391754
-0.065946 0.579300 -0.659424
-0.294372 0.636244 0.512615
0.858547 -0.069421 0.028641
-0.613964 0.425685 -0.451764
-0.823892 0.309076 -0.084791
0.724519 -0.436335 0.226788
0.180781 -0.742157 -0.441263
0.411844 -0.541308 -0.576768
-0.175687 0.023615 0.857034
0.144260 0.648504 -0.563043
0.751301 0.313646 -0.282696
0.753725 0.416966 -0.172527
0.376952 0.457325 0.629180
-0.108619 0.774138 -0.396465
0.110811 -0.724596 -0.485682
0.067820 0.590293 -0.642182
-0.674551 0.343313 0.457139
-0.849805 0.228987 0.103860
-0.207547 0.465190 -0.691173
0.385130 0.759115 -0.082758
-0.051444 0.178699 0.852261
0.278568 -0.374728 0.754141
0.860653 -0.038174 0.115687
-0.520589 0.522817 -0.477856
-0.849143 0.179984 0.166751
-0.469090 0.755473 0.016120
-0.226288 0.215135 0.818848
-0.107870 -0.199589 -0.855979
-0.089508 -0.806920 -0.349225
-0.352901 0.781510 -0.171265
0.441608 0.609240 0.397318
-0.200673 -0.747314 0.420721
-0.739813 0.272806 0.410228
0.736058 -0.438850 0.123103
-0.755199 0.476630 0.088617
0.762829 0.121312 -0.361038
-0.091137 -0.590480 0.635324
0.845330 -0.093499 -0.119319
-0.837818 0.170961 -0.268630
0.643621 -0.220403 0.518691
0.397134 0.661290 0.388701
0.177169 0.788853 -0.326738
-0.170748 0.209918 -0.830619
-0.167959 0.071827 -0.868857
0.478577 -0.367620 0.610317
0.608729 -0.126929 -0.623438
-0.873607 -0.071170 0.170498
-0.306073 -0.822932 0.141720
-0.514562 -0.536345 -0.489543
0.550211 -0.694804 -0.101940
0.652010 0.530969 -0.152753
-0.838093 -0.353238 0.002546
0.199523 -0.597242 0.623622
0.062998 -0.495253 0.714735
0.049758 -0.503840 -0.719166
0.848596 -0.106394 -0.144189
0.771020 0.125710 -0.350602
0.545382 0.421414 0.496295
0.456176 0.674189 -0.284661
-0.790221 -0.432958 -0.050992
-0.734042 0.333364 0.366584
0.749423 0.306720 0.231571
-0.153862 0.728944 0.432668
-0.672855 0.534027 -0.129424
-0.873809 -0.041464 0.070456
0.015526 -0.811451 -0.414375
-0.732532 0.028297 0.491807
0.265303 -0.551544 0.645718
-0.790798 -0.198131 -0.351166
-0.560947 0.665303 0.008275
0.151746 -0.515771 -0.696493
0.205153 0.502188 -0.687880
0.474745 -0.397923 -0.620659
-0.385468 -0.770233 0.221762
0.677361 -0.231810 0.509083
0.129342 0.559995 -0.652971
-0.004655 0.067905 0.872446
-0.833489 0.214999 -0.265249
0.313335 0.429286 0.684098
0.025046 0.002837 0.879188
-0.410818 0.480957 0.594117
-0.028260 -0.862465 -0.228425
0.196419 -0.195606 -0.859130
0.059976 0.863737 -0.008927
0.816393 -0.311290 -0.013435
0.089198 0.050757 -0.887875
0.505106 0.275470 0.638727
-0.184871 -0.620513 -0.622253
0.760115 0.329737 0.229959
0.735840 -0.148616 -0.412147
-0.145690 0.843283 -0.146155
0.603576 0.622088 -0.063436
0.075711 -0.877447 0.163133
-0.806219 0.393003 0.016944
0.661710 -0.508102 -0.243976
-0.364088 0.004964 -0.810885
0.555391 0.018385 -0.668266
0.420772 0.710981 0.201615
0.666018 0.488834 0.185338
0.327134 0.727498 0.293835
-0.065132 0.460857 -0.727228
0.659944 0.337323 -0.445864
0.532320 -0.521659 -0.462778
-0.329466 -0.609099 0.556371
-0.720830 0.243181 0.435021
0.606551 -0.460765 0.429601
-0.231132 -0.184067 0.829942
-0.210782 -0.445931 0.730186
-0.200027 -0.835350 0.246956
-0.843426 0.311604 0.009202
-0.199825 0.639588 0.538636
0.647667 -0.573962 0.090468
-0.519998 0.538732 0.463780
-0.631706 0.253255 -0.567720
-0.174445 0.835840 0.023036
-0.851770 -0.295963 -0.015990
-0.860647 -0.222281 -0.023095
-0.798864 0.353126 0.040269
-0.528969 0.674187 0.186315
-0.845990 -0.241482 0.177997
-0.295732 0.246945 0.781437
0.111860 -0.724803 -0.500762
0.332279 0.505556 -0.633232
-0.145810 -0.788396 0.373139
0.180118 0.718312 -0.442308
0.695909 -0.337396 -0.400017
-0.516667 0.442816 -0.566121
-0.413537 0.776143 -0.031425
0.695993 -0.520686 -0.175158
0.247658 0.075752 0.832758
0.794010 -0.134665 0.309256
0.765596 -0.397770 0.137589
-0.453279 -0.754589 0.126992
-0.728614 -0.350727 -0.393135
-0.555799 -0.099074 0.671893
0.490191 0.280937 -0.676171
0.626176 0.414093 0.409216
-0.230115 -0.567540 -0.649771
0.822571 -0.228720 -0.006435
-0.745692 -0.053153 -0.510510
0.851948 -0.007543 0.086680
0.309361 -0.625442 -0.534237
0.420666 -0.788547 -0.002110
-0.183625 0.260243 -0.818176
-0.340944 -0.683905 -0.454973
0.468069 0.585178 0.408712
0.443643 0.735987 0.034491
-0.220784 -0.851167 -0.019337
-0.849905 -0.064644 0.242529
-0.752840 -0.494618 0.044035
-0.790815 -0.120443 -0.417262
0.497170 -0.205962 0.685939
0.193690 -0.813504 -0.325339
0.170582 -0.150206 -0.853307
-0.192383 0.658130 -0.551444
0.831702 -0.103350 -0.162660
0.056953 -0.159237 -0.868426
0.691179 0.516909 0.073790
0.318178 0.201659 0.781615
0.286494 0.802634 0.110688
-0.387552 0.593910 -0.531448
0.079961 0.404407 -0.778595
0.824429 0.275310 0.068212
-0.790735 0.262176 0.316090
-0.082221 0.838948 0.248715
-0.871738 0.178134 0.117223
0.168104 -0.846451 -0.245365
-0.401815 0.766246 -0.195986
0.576479 0.145242 0.628289
0.177996 -0.341359 -0.802676
-0.836079 0.036418 -0.353976
0.022017 0.773847 -0.364309
0.211401 -0.121958 0.835786
-0.088826 -0.887424 -0.005743
-0.615816 0.306050 -0.553961
-0.379604 0.504535 0.615794
0.765694 0.353057 -0.231747
-0.201208 0.827940 -0.214553
-0.168756 -0.828847 -0.282759
0.538130 0.283719 -0.601880
-0.641213 0.585345 -0.093323
-0.747145 -0.501916 0.097053
-0.073166 -0.895458 -0.071391
-0.050316 -0.860012 -0.208785
-0.190875 0.702997 -0.489336
-0.330124 0.521557 0.639884
0.312432 0.487810 0.646458
-0.122254 -0.880936 0.108652
-0.091051 0.786261 0.365667
-0.508441 0.039131 0.724865
0.511954 -0.386357 -0.595750
0.571217 0.009393 -0.687394
0.422646 -0.587044 -0.531631
-0.062828 -0.868116 0.154281
-0.287052 -0.362126 -0.756781
-0.663178 0.427665 0.408091
-0.265494 -0.282906 -0.792662
0.241822 -0.097401 -0.842563
0.233710 0.150127 0.818293
0.743716 0.334274 -0.263219
-0.487840 0.738381 0.097663
0.681287 0.509306 -0.027350
0.712443 -0.415966 0.258692
0.077133 -0.406975 0.777322
0.453734 0.722858 0.098839
-0.589350 0.579682 -0.317573
-0.298735 0.186294 -0.815839
0.776127 -0.245914 0.254072
-0.426870 0.739719 -0.140964
-0.366580 0.026140 0.812044
-0.872942 -0.161446 0.144066
0.141412 -0.841380 0.230165
0.579024 -0.623464 0.260973
-0.418609 -0.780342 0.065851
-0.557450 0.627290 -0.200777
0.096132 0.863429 -0.055267
-0.671429 0.468268 0.326364
-0.693539 -0.352082 -0.468657
0.062896 -0.682628 -0.571086
0.514860 -0.132275 0.689627
0.548962 -0.599123 0.305526
0.115304 -0.574266 0.648626
0.680483 -0.487731 -0.238535
-0.307321 -0.830968 0.138139
0.797934 -0.316390 0.173087
-0.564378 -0.066669 0.675782
0.475312 0.307892 0.657656
-0.122089 -0.775358 -0.425651
0.268578 -0.116508 0.818074
0.817301 0.147734 -0.229152
-0.630479 -0.601162 0.198373
-0.065682 0.127751 0.868632
-0.740790 0.477468 -0.170504
0.721970 -0.408827 0.242513
-0.102737 0.160081 0.858698
-0.606180 -0.624961 0.221659
-0.752940 0.373058 0.266339
0.635449 -0.330605 0.490068
-0.506833 0.503509 0.488629
0.308657 0.220478 0.797182
-0.757567 0.401709 0.261569
-0.639760 0.422299 -0.437225
0.303109 -0.296180 -0.767038
-0.269094 0.394658 -0.742518
-0.114542 0.312598 0.799662
-0.561038 0.353086 0.556503
-0.330256 -0.813203 0.153630
-0.490677 0.231973 0.688112
-0.601741 -0.095582 0.639521
-0.217411 -0.820293 -0.267847
0.682358 0.104446 0.541517
0.443884 0.490849 -0.517721
-0.046574 -0.220150 0.851404
0.657933 -0.462978 -0.327370
0.515048 -0.597952 -0.385767
-0.202186 -0.675066 -0.567405
0.856055 -0.116915 0.090388
0.309312 -0.424745 0.696206
-0.340879 -0.842468 0.089835
-0.226403 -0.282533 -0.811035
0.220285 -0.323021 -0.801234
0.624513 -0.614392 0.031076
-0.103372 0.533537 0.670108
0.508872 -0.721060 0.135665
-0.674187 -0.410309 0.421902
0.638422 -0.008592 0.583918
0.181507 0.568563 -0.656099
0.135987 -0.872145 -0.127237
-0.069221 0.077529 -0.877647
0.463269 -0.756745 -0.142808
-0.502481 -0.376442 0.633826
0.708436 -0.062559 0.500723
0.053348 -0.832900 -0.309130
0.659614 0.424120 0.372891
0.396767 -0.689138 0.376090
-0.475374 -0.776742 -0.021359
0.077338 0.527343 -0.703195
-0.472169 -0.060840 0.736292
0.441852 0.741912 0.138714
-0.488084 0.469826 -0.564678
-0.045195 -0.844527 0.301211
-0.717208 0.212511 0.484976
-0.303799 -0.475779 -0.686848
0.699960 -0.534268 -0.126034
-0.140103 -0.375227 0.794070
0.710395 0.458792 0.156020
-0.630023 0.358099 0.487716
-0.274859 0.568633 -0.627150
-0.779551 0.085430 -0.411749
0.244436 -0.217908 0.809698
-0.283058 0.391695 -0.747142
-0.059957 -0.569428 0.675163
-0.427339 0.073857 -0.781474
0.433897 -0.738553 0.149854
0.008401 0.198894 -0.872255
-0.532704 -0.102995 0.709537
-0.611835 -0.669471 0.056704
-0.641766 0.603942 0.048278
-0.787394 -0.341641 -0.208673
-0.235170 0.761883 0.334811
0.808351 -0.073374 0.293448
-0.339949 -0.803647 0.180990
-0.617072 -0.651129 -0.073197
0.627023 -0.285085 -0.565276
-0.832138 0.295297 0.135678
0.417444 -0.075279 0.752246
0.651198 0.418332 -0.363553
0.866267 -0.093015 -0.071244
-0.097308 -0.404605 -0.782174
-0.450973 -0.260101 -0.723642
-0.454335 0.527784 -0.541137
0.233002 0.801700 0.218326
0.761565 -0.101442 -0.394971
0.015036 0.362283 0.775929
0.615036 -0.597804 -0.152343
0.782255 0.295718 0.220108
0.263184 -0.821497 0.096819
0.596532 -0.648055 -0.021314
0.023657 0.858962 -0.182637
0.843231 -0.143000 -0.087776
-0.086714 0.058606 0.879836
0.270838 0.403915 -0.719327
-0.292176 0.143089 0.820625
0.742778 -0.136089 -0.439519
0.516741 0.448712 0.494165
-0.276089 -0.694447 -0.483611
